<svg id="e5jrFqvN3Rb1" xmlns="http://www.w3.org/2000/svg" xmlns:xlink="http://www.w3.org/1999/xlink" viewBox="0 40 740 20" shape-rendering="geometricPrecision" text-rendering="geometricPrecision"><title>VapourTrails</title>
<g>
<title>VapourTrails</title>
<g id="e5jrFqvN3Rb2" transform="translate(.000001 0)" opacity="0.3"><ellipse rx="5" ry="5" transform="translate(5.460134 48)" fill="#fecdd3" stroke-width="0"/><ellipse rx="4" ry="4" transform="translate(87.962263 53.262772)" fill="#fecdd3" stroke-width="0"/><ellipse rx="4" ry="4" transform="translate(61.186942 47)" fill="#fecdd3" stroke-width="0"/><ellipse rx="4" ry="4" transform="translate(122.563695 52.5)" fill="#fecdd3" stroke-width="0"/><ellipse rx="3" ry="3" transform="translate(24.612954 46)" fill="#fecdd3" stroke-width="0"/><ellipse rx="4" ry="4" transform="translate(118.563695 44)" fill="#fecdd3" stroke-width="0"/><ellipse rx="2.5" ry="2.5" transform="translate(39.607496 51.762772)" fill="#fecdd3" stroke-width="0"/><ellipse rx="4.5" ry="4.5" transform="translate(96.462263 46.762772)" fill="#fecdd3" stroke-width="0"/><ellipse rx="3.5" ry="3.5" transform="translate(18.112954 54.262772)" fill="#fecdd3" stroke-width="0"/><ellipse rx="4.5" ry="4.5" transform="translate(46.607496 45.762772)" fill="#fecdd3" stroke-width="0"/><ellipse rx="4" ry="4" transform="translate(74.161624 51)" fill="#fecdd3" stroke-width="0"/><ellipse rx="4" ry="4" transform="translate(144.513058 57)" fill="#fecdd3" stroke-width="0"/><ellipse rx="3" ry="3" transform="translate(37.587635 50)" fill="#fecdd3" stroke-width="0"/><ellipse rx="4" ry="4" transform="translate(131.538376 48)" fill="#fecdd3" stroke-width="0"/><ellipse rx="2.5" ry="2.5" transform="translate(52.582176 55.762772)" fill="#fecdd3" stroke-width="0"/><ellipse rx="4.5" ry="4.5" transform="translate(109.436944 50.762772)" fill="#fecdd3" stroke-width="0"/><ellipse rx="5" ry="5" transform="translate(149.513058 47.5)" fill="#fecdd3" stroke-width="0"/><ellipse rx="4" ry="4" transform="translate(232.015187 52.762772)" fill="#fecdd3" stroke-width="0"/><ellipse rx="4" ry="4" transform="translate(205.239866 46.5)" fill="#fecdd3" stroke-width="0"/><ellipse rx="4" ry="4" transform="translate(266.616619 52)" fill="#fecdd3" stroke-width="0"/><ellipse rx="3" ry="3" transform="translate(168.665878 45.5)" fill="#fecdd3" stroke-width="0"/><ellipse rx="4" ry="4" transform="translate(262.616619 43.5)" fill="#fecdd3" stroke-width="0"/><ellipse rx="2.5" ry="2.5" transform="translate(183.66042 51.262772)" fill="#fecdd3" stroke-width="0"/><ellipse rx="4.5" ry="4.5" transform="translate(240.515187 46.262772)" fill="#fecdd3" stroke-width="0"/><ellipse rx="3.5" ry="3.5" transform="translate(162.165878 53.762772)" fill="#fecdd3" stroke-width="0"/><ellipse rx="4.5" ry="4.5" transform="translate(190.66042 45.262772)" fill="#fecdd3" stroke-width="0"/><ellipse rx="4" ry="4" transform="translate(218.214548 50.5)" fill="#fecdd3" stroke-width="0"/><ellipse rx="4" ry="4" transform="translate(288.565982 56.5)" fill="#fecdd3" stroke-width="0"/><ellipse rx="3" ry="3" transform="translate(181.640559 49.5)" fill="#fecdd3" stroke-width="0"/><ellipse rx="4" ry="4" transform="translate(275.5913 47.5)" fill="#fecdd3" stroke-width="0"/><ellipse rx="2.5" ry="2.5" transform="translate(196.6351 55.262772)" fill="#fecdd3" stroke-width="0"/><ellipse rx="4.5" ry="4.5" transform="translate(253.489868 50.262772)" fill="#fecdd3" stroke-width="0"/><ellipse rx="5" ry="5" transform="translate(297.565982 46.512772)" fill="#fecdd3" stroke-width="0"/><ellipse rx="4" ry="4" transform="translate(380.068111 51.775544)" fill="#fecdd3" stroke-width="0"/><ellipse rx="4" ry="4" transform="translate(353.29279 45.512772)" fill="#fecdd3" stroke-width="0"/><ellipse rx="4" ry="4" transform="translate(414.669543 51.012772)" fill="#fecdd3" stroke-width="0"/><ellipse rx="3" ry="3" transform="translate(316.718802 44.512772)" fill="#fecdd3" stroke-width="0"/><ellipse rx="4" ry="4" transform="translate(410.669543 42.512772)" fill="#fecdd3" stroke-width="0"/><ellipse rx="2.5" ry="2.5" transform="translate(331.713344 50.275544)" fill="#fecdd3" stroke-width="0"/><ellipse rx="4.5" ry="4.5" transform="translate(388.568111 45.275544)" fill="#fecdd3" stroke-width="0"/><ellipse rx="3.5" ry="3.5" transform="translate(310.218802 52.775544)" fill="#fecdd3" stroke-width="0"/><ellipse rx="4.5" ry="4.5" transform="translate(338.713344 44.275544)" fill="#fecdd3" stroke-width="0"/><ellipse rx="4" ry="4" transform="translate(366.267472 49.512772)" fill="#fecdd3" stroke-width="0"/><ellipse rx="4" ry="4" transform="translate(436.618906 55.512772)" fill="#fecdd3" stroke-width="0"/><ellipse rx="4" ry="4" transform="translate(575.697148 56.363674)" fill="#fecdd3" stroke-width="0"/><ellipse rx="3" ry="3" transform="translate(329.693483 48.512772)" fill="#fecdd3" stroke-width="0"/><ellipse rx="4" ry="4" transform="translate(423.644224 46.512772)" fill="#fecdd3" stroke-width="0"/><ellipse rx="2.5" ry="2.5" transform="translate(344.688024 54.275544)" fill="#fecdd3" stroke-width="0"/><ellipse rx="4.5" ry="4.5" transform="translate(401.542792 49.275544)" fill="#fecdd3" stroke-width="0"/><ellipse rx="5" ry="5" transform="translate(441.618906 46.012772)" fill="#fecdd3" stroke-width="0"/><ellipse rx="5" ry="5" transform="translate(580.697148 46.863674)" fill="#fecdd3" stroke-width="0"/><ellipse rx="4" ry="4" transform="translate(524.121035 51.275544)" fill="#fecdd3" stroke-width="0"/><ellipse rx="4" ry="4" transform="translate(663.199277 52.126446)" fill="#fecdd3" stroke-width="0"/><ellipse rx="4" ry="4" transform="translate(497.345714 45.012772)" fill="#fecdd3" stroke-width="0"/><ellipse rx="4" ry="4" transform="translate(636.423956 45.863674)" fill="#fecdd3" stroke-width="0"/><ellipse rx="4" ry="4" transform="translate(558.722467 50.512772)" fill="#fecdd3" stroke-width="0"/><ellipse rx="4" ry="4" transform="translate(697.800709 51.363674)" fill="#fecdd3" stroke-width="0"/><ellipse rx="3" ry="3" transform="translate(460.771726 44.012772)" fill="#fecdd3" stroke-width="0"/><ellipse rx="3" ry="3" transform="translate(599.849968 44.863674)" fill="#fecdd3" stroke-width="0"/><ellipse rx="4" ry="4" transform="translate(554.722467 42.012772)" fill="#fecdd3" stroke-width="0"/><ellipse rx="4" ry="4" transform="translate(693.800709 42.863674)" fill="#fecdd3" stroke-width="0"/><ellipse rx="2.5" ry="2.5" transform="translate(475.766268 49.775544)" fill="#fecdd3" stroke-width="0"/><ellipse rx="2.5" ry="2.5" transform="translate(614.84451 50.626446)" fill="#fecdd3" stroke-width="0"/><ellipse rx="4.5" ry="4.5" transform="translate(532.621035 44.775544)" fill="#fecdd3" stroke-width="0"/><ellipse rx="4.5" ry="4.5" transform="translate(671.699277 45.626446)" fill="#fecdd3" stroke-width="0"/><ellipse rx="3.5" ry="3.5" transform="translate(454.271726 52.275544)" fill="#fecdd3" stroke-width="0"/><ellipse rx="3.5" ry="3.5" transform="translate(593.349968 53.126446)" fill="#fecdd3" stroke-width="0"/><ellipse rx="4.5" ry="4.5" transform="translate(482.766268 43.775544)" fill="#fecdd3" stroke-width="0"/><ellipse rx="4.5" ry="4.5" transform="translate(621.84451 44.626446)" fill="#fecdd3" stroke-width="0"/><ellipse rx="4" ry="4" transform="translate(510.320396 49.012772)" fill="#fecdd3" stroke-width="0"/><ellipse rx="4" ry="4" transform="translate(649.398638 49.863674)" fill="#fecdd3" stroke-width="0"/><ellipse rx="4" ry="4" transform="translate(580.67183 55.012772)" fill="#fecdd3" stroke-width="0"/><ellipse rx="4" ry="4" transform="translate(719.750072 55.863674)" fill="#fecdd3" stroke-width="0"/><ellipse rx="3" ry="3" transform="translate(473.746407 48.012772)" fill="#fecdd3" stroke-width="0"/><ellipse rx="3" ry="3" transform="translate(612.824649 48.863674)" fill="#fecdd3" stroke-width="0"/><ellipse rx="4" ry="4" transform="translate(567.697148 46.012772)" fill="#fecdd3" stroke-width="0"/><ellipse rx="4" ry="4" transform="translate(706.77539 46.863674)" fill="#fecdd3" stroke-width="0"/><ellipse rx="2.5" ry="2.5" transform="translate(488.740948 53.775544)" fill="#fecdd3" stroke-width="0"/><ellipse rx="2.5" ry="2.5" transform="translate(627.81919 54.626446)" fill="#fecdd3" stroke-width="0"/><ellipse rx="4.5" ry="4.5" transform="translate(545.595716 48.775544)" fill="#fecdd3" stroke-width="0"/><ellipse rx="4.5" ry="4.5" transform="translate(684.673958 49.626446)" fill="#fecdd3" stroke-width="0"/></g><g id="e5jrFqvN3Rb84" transform="matrix(-.9 0 0-.9 655.738572 120.052828)" opacity="0.8"><ellipse rx="4" ry="4" transform="translate(380.068111 81.068415)" fill="#fecdd3" stroke-width="0"/><ellipse rx="4" ry="4" transform="translate(353.29279 74.805643)" fill="#fecdd3" stroke-width="0"/><ellipse rx="4" ry="4" transform="translate(414.669543 80.305643)" fill="#fecdd3" stroke-width="0"/><ellipse rx="4" ry="4" transform="translate(410.669543 71.805643)" fill="#fecdd3" stroke-width="0"/><ellipse rx="4.5" ry="4.5" transform="translate(388.568111 74.568415)" fill="#fecdd3" stroke-width="0"/><ellipse rx="4" ry="4" transform="translate(366.267472 78.805643)" fill="#fecdd3" stroke-width="0"/><ellipse rx="4" ry="4" transform="translate(436.618906 84.805643)" fill="#fecdd3" stroke-width="0"/><ellipse rx="4" ry="4" transform="translate(575.697148 85.656545)" fill="#fecdd3" stroke-width="0"/><ellipse rx="4" ry="4" transform="translate(423.644224 75.805643)" fill="#fecdd3" stroke-width="0"/><ellipse rx="4.5" ry="4.5" transform="translate(401.542792 78.568415)" fill="#fecdd3" stroke-width="0"/><ellipse rx="5" ry="5" transform="translate(441.618906 75.305643)" fill="#fecdd3" stroke-width="0"/><ellipse rx="5" ry="5" transform="translate(580.697148 76.156545)" fill="#fecdd3" stroke-width="0"/><ellipse rx="4" ry="4" transform="translate(524.121035 80.568415)" fill="#fecdd3" stroke-width="0"/><ellipse rx="4" ry="4" transform="translate(663.199277 81.419317)" fill="#fecdd3" stroke-width="0"/><ellipse rx="4" ry="4" transform="translate(497.345714 74.305643)" fill="#fecdd3" stroke-width="0"/><ellipse rx="4" ry="4" transform="translate(636.423956 75.156545)" fill="#fecdd3" stroke-width="0"/><ellipse rx="4" ry="4" transform="translate(558.722467 79.805643)" fill="#fecdd3" stroke-width="0"/><ellipse rx="4" ry="4" transform="translate(697.800709 80.656545)" fill="#fecdd3" stroke-width="0"/><ellipse rx="3" ry="3" transform="translate(460.771726 73.305643)" fill="#fecdd3" stroke-width="0"/><ellipse rx="3" ry="3" transform="translate(599.849968 74.156545)" fill="#fecdd3" stroke-width="0"/><ellipse rx="4" ry="4" transform="translate(554.722467 71.305643)" fill="#fecdd3" stroke-width="0"/><ellipse rx="4" ry="4" transform="translate(693.800709 72.156545)" fill="#fecdd3" stroke-width="0"/><ellipse rx="2.5" ry="2.5" transform="translate(475.766268 79.068415)" fill="#fecdd3" stroke-width="0"/><ellipse rx="2.5" ry="2.5" transform="translate(614.84451 79.919317)" fill="#fecdd3" stroke-width="0"/><ellipse rx="4.5" ry="4.5" transform="translate(532.621035 74.068415)" fill="#fecdd3" stroke-width="0"/><ellipse rx="4.5" ry="4.5" transform="translate(671.699277 74.919317)" fill="#fecdd3" stroke-width="0"/><ellipse rx="3.5" ry="3.5" transform="translate(454.271726 81.568415)" fill="#fecdd3" stroke-width="0"/><ellipse rx="3.5" ry="3.5" transform="translate(593.349968 82.419317)" fill="#fecdd3" stroke-width="0"/><ellipse rx="4.5" ry="4.5" transform="translate(482.766268 73.068415)" fill="#fecdd3" stroke-width="0"/><ellipse rx="4.5" ry="4.5" transform="translate(621.84451 73.919317)" fill="#fecdd3" stroke-width="0"/><ellipse rx="4" ry="4" transform="translate(510.320396 78.305643)" fill="#fecdd3" stroke-width="0"/><ellipse rx="4" ry="4" transform="translate(649.398638 79.156545)" fill="#fecdd3" stroke-width="0"/><ellipse rx="4" ry="4" transform="translate(580.67183 84.305643)" fill="#fecdd3" stroke-width="0"/><ellipse rx="4" ry="4" transform="translate(719.750072 85.156545)" fill="#fecdd3" stroke-width="0"/><ellipse rx="3" ry="3" transform="translate(473.746407 77.305643)" fill="#fecdd3" stroke-width="0"/><ellipse rx="3" ry="3" transform="translate(612.824649 78.156545)" fill="#fecdd3" stroke-width="0"/><ellipse rx="4" ry="4" transform="translate(567.697148 75.305643)" fill="#fecdd3" stroke-width="0"/><ellipse rx="4" ry="4" transform="translate(706.77539 76.156545)" fill="#fecdd3" stroke-width="0"/><ellipse rx="2.5" ry="2.5" transform="translate(488.740948 83.068415)" fill="#fecdd3" stroke-width="0"/><ellipse rx="2.5" ry="2.5" transform="translate(627.81919 83.919317)" fill="#fecdd3" stroke-width="0"/><ellipse rx="4.5" ry="4.5" transform="translate(545.595716 78.068415)" fill="#fecdd3" stroke-width="0"/><ellipse rx="4.5" ry="4.5" transform="translate(684.673958 78.919317)" fill="#fecdd3" stroke-width="0"/></g><g id="e5jrFqvN3Rb127" transform="matrix(.85 0 0 0.85 5.59144-22.540179)" opacity="0.15"><ellipse rx="5" ry="5" transform="translate(5.622504 80.658849)" fill="#fecdd3" stroke-width="0"/><ellipse rx="4" ry="4" transform="translate(88.124633 85.921621)" fill="#fecdd3" stroke-width="0"/><ellipse rx="4" ry="4" transform="translate(61.349312 79.658849)" fill="#fecdd3" stroke-width="0"/><ellipse rx="4" ry="4" transform="translate(122.726065 85.158849)" fill="#fecdd3" stroke-width="0"/><ellipse rx="3" ry="3" transform="translate(24.775324 78.658849)" fill="#fecdd3" stroke-width="0"/><ellipse rx="4" ry="4" transform="translate(118.726065 76.658849)" fill="#fecdd3" stroke-width="0"/><ellipse rx="2.5" ry="2.5" transform="translate(39.769866 84.421621)" fill="#fecdd3" stroke-width="0"/><ellipse rx="4.5" ry="4.5" transform="translate(96.624633 79.421621)" fill="#fecdd3" stroke-width="0"/><ellipse rx="3.5" ry="3.5" transform="translate(18.275324 86.921621)" fill="#fecdd3" stroke-width="0"/><ellipse rx="4.5" ry="4.5" transform="translate(46.769866 78.421621)" fill="#fecdd3" stroke-width="0"/><ellipse rx="4" ry="4" transform="translate(74.323994 83.658849)" fill="#fecdd3" stroke-width="0"/><ellipse rx="4" ry="4" transform="translate(144.675428 89.658849)" fill="#fecdd3" stroke-width="0"/><ellipse rx="3" ry="3" transform="translate(37.750005 82.658849)" fill="#fecdd3" stroke-width="0"/><ellipse rx="4" ry="4" transform="translate(131.700746 80.658849)" fill="#fecdd3" stroke-width="0"/><ellipse rx="2.5" ry="2.5" transform="translate(52.744546 88.421621)" fill="#fecdd3" stroke-width="0"/><ellipse rx="4.5" ry="4.5" transform="translate(109.599314 83.421621)" fill="#fecdd3" stroke-width="0"/><ellipse rx="5" ry="5" transform="translate(149.675428 80.158849)" fill="#fecdd3" stroke-width="0"/><ellipse rx="4" ry="4" transform="translate(232.177557 85.421621)" fill="#fecdd3" stroke-width="0"/><ellipse rx="4" ry="4" transform="translate(205.402236 79.158849)" fill="#fecdd3" stroke-width="0"/><ellipse rx="4" ry="4" transform="translate(266.778989 84.658849)" fill="#fecdd3" stroke-width="0"/><ellipse rx="3" ry="3" transform="translate(168.828248 78.158849)" fill="#fecdd3" stroke-width="0"/><ellipse rx="4" ry="4" transform="translate(262.778989 76.158849)" fill="#fecdd3" stroke-width="0"/><ellipse rx="2.5" ry="2.5" transform="translate(183.82279 83.921621)" fill="#fecdd3" stroke-width="0"/><ellipse rx="4.5" ry="4.5" transform="translate(240.677557 78.921621)" fill="#fecdd3" stroke-width="0"/><ellipse rx="3.5" ry="3.5" transform="translate(162.328248 86.421621)" fill="#fecdd3" stroke-width="0"/><ellipse rx="4.5" ry="4.5" transform="translate(190.82279 77.921621)" fill="#fecdd3" stroke-width="0"/><ellipse rx="4" ry="4" transform="translate(218.376918 83.158849)" fill="#fecdd3" stroke-width="0"/><ellipse rx="4" ry="4" transform="translate(288.728352 89.158849)" fill="#fecdd3" stroke-width="0"/><ellipse rx="3" ry="3" transform="translate(181.802929 82.158849)" fill="#fecdd3" stroke-width="0"/><ellipse rx="4" ry="4" transform="translate(275.75367 80.158849)" fill="#fecdd3" stroke-width="0"/><ellipse rx="2.5" ry="2.5" transform="translate(196.79747 87.921621)" fill="#fecdd3" stroke-width="0"/><ellipse rx="4.5" ry="4.5" transform="translate(253.652238 82.921621)" fill="#fecdd3" stroke-width="0"/><ellipse rx="5" ry="5" transform="translate(297.728352 79.171621)" fill="#fecdd3" stroke-width="0"/><ellipse rx="4" ry="4" transform="translate(380.230481 84.434393)" fill="#fecdd3" stroke-width="0"/><ellipse rx="4" ry="4" transform="translate(353.45516 78.171621)" fill="#fecdd3" stroke-width="0"/><ellipse rx="4" ry="4" transform="translate(414.831913 83.671621)" fill="#fecdd3" stroke-width="0"/><ellipse rx="3" ry="3" transform="translate(316.881172 77.171621)" fill="#fecdd3" stroke-width="0"/><ellipse rx="4" ry="4" transform="translate(410.831913 75.171621)" fill="#fecdd3" stroke-width="0"/><ellipse rx="2.5" ry="2.5" transform="translate(331.875714 82.934393)" fill="#fecdd3" stroke-width="0"/><ellipse rx="4.5" ry="4.5" transform="translate(388.730481 77.934393)" fill="#fecdd3" stroke-width="0"/><ellipse rx="3.5" ry="3.5" transform="translate(310.381172 85.434393)" fill="#fecdd3" stroke-width="0"/><ellipse rx="4.5" ry="4.5" transform="translate(338.875714 76.934393)" fill="#fecdd3" stroke-width="0"/><ellipse rx="4" ry="4" transform="translate(366.429842 82.171621)" fill="#fecdd3" stroke-width="0"/><ellipse rx="4" ry="4" transform="translate(436.781276 88.171621)" fill="#fecdd3" stroke-width="0"/><ellipse rx="3" ry="3" transform="translate(329.855853 81.171621)" fill="#fecdd3" stroke-width="0"/><ellipse rx="4" ry="4" transform="translate(423.806594 79.171621)" fill="#fecdd3" stroke-width="0"/><ellipse rx="2.5" ry="2.5" transform="translate(344.850394 86.934393)" fill="#fecdd3" stroke-width="0"/><ellipse rx="4.5" ry="4.5" transform="translate(401.705162 81.934393)" fill="#fecdd3" stroke-width="0"/><ellipse rx="5" ry="5" transform="translate(441.781276 78.671621)" fill="#fecdd3" stroke-width="0"/><ellipse rx="4" ry="4" transform="translate(524.283405 83.934393)" fill="#fecdd3" stroke-width="0"/><ellipse rx="4" ry="4" transform="translate(497.508084 77.671621)" fill="#fecdd3" stroke-width="0"/><ellipse rx="3" ry="3" transform="translate(460.934096 76.671621)" fill="#fecdd3" stroke-width="0"/><ellipse rx="2.5" ry="2.5" transform="translate(475.928638 82.434393)" fill="#fecdd3" stroke-width="0"/><ellipse rx="4.5" ry="4.5" transform="translate(532.783405 77.434393)" fill="#fecdd3" stroke-width="0"/><ellipse rx="3.5" ry="3.5" transform="translate(454.434096 84.934393)" fill="#fecdd3" stroke-width="0"/><ellipse rx="4.5" ry="4.5" transform="translate(482.928638 76.434393)" fill="#fecdd3" stroke-width="0"/><ellipse rx="4" ry="4" transform="translate(510.482766 81.671621)" fill="#fecdd3" stroke-width="0"/><ellipse rx="3" ry="3" transform="translate(473.908777 80.671621)" fill="#fecdd3" stroke-width="0"/><ellipse rx="2.5" ry="2.5" transform="translate(488.903318 86.434393)" fill="#fecdd3" stroke-width="0"/></g><g id="e5jrFqvN3Rb187" transform="matrix(-.85 0 0-.85 614.508131 91.355972)" opacity="0.3"><ellipse rx="5" ry="5" transform="translate(5.460134 48)" fill="#fecdd3" stroke-width="0"/><ellipse rx="4" ry="4" transform="translate(87.962263 53.262772)" fill="#fecdd3" stroke-width="0"/><ellipse rx="4" ry="4" transform="translate(61.186942 47)" fill="#fecdd3" stroke-width="0"/><ellipse rx="4" ry="4" transform="translate(122.563695 52.5)" fill="#fecdd3" stroke-width="0"/><ellipse rx="3" ry="3" transform="translate(24.612954 46)" fill="#fecdd3" stroke-width="0"/><ellipse rx="4" ry="4" transform="translate(118.563695 44)" fill="#fecdd3" stroke-width="0"/><ellipse rx="2.5" ry="2.5" transform="translate(39.607496 51.762772)" fill="#fecdd3" stroke-width="0"/><ellipse rx="4.5" ry="4.5" transform="translate(96.462263 46.762772)" fill="#fecdd3" stroke-width="0"/><ellipse rx="3.5" ry="3.5" transform="translate(18.112954 54.262772)" fill="#fecdd3" stroke-width="0"/><ellipse rx="4.5" ry="4.5" transform="translate(46.607496 45.762772)" fill="#fecdd3" stroke-width="0"/><ellipse rx="4" ry="4" transform="translate(74.161624 51)" fill="#fecdd3" stroke-width="0"/><ellipse rx="4" ry="4" transform="translate(144.513058 57)" fill="#fecdd3" stroke-width="0"/><ellipse rx="3" ry="3" transform="translate(37.587635 50)" fill="#fecdd3" stroke-width="0"/><ellipse rx="4" ry="4" transform="translate(131.538376 48)" fill="#fecdd3" stroke-width="0"/><ellipse rx="2.5" ry="2.5" transform="translate(52.582176 55.762772)" fill="#fecdd3" stroke-width="0"/><ellipse rx="4.5" ry="4.5" transform="translate(109.436944 50.762772)" fill="#fecdd3" stroke-width="0"/><ellipse rx="5" ry="5" transform="translate(149.513058 47.5)" fill="#fecdd3" stroke-width="0"/><ellipse rx="4" ry="4" transform="translate(232.015187 52.762772)" fill="#fecdd3" stroke-width="0"/><ellipse rx="4" ry="4" transform="translate(205.239866 46.5)" fill="#fecdd3" stroke-width="0"/><ellipse rx="4" ry="4" transform="translate(266.616619 52)" fill="#fecdd3" stroke-width="0"/><ellipse rx="3" ry="3" transform="translate(168.665878 45.5)" fill="#fecdd3" stroke-width="0"/><ellipse rx="4" ry="4" transform="translate(262.616619 43.5)" fill="#fecdd3" stroke-width="0"/><ellipse rx="2.5" ry="2.5" transform="translate(183.66042 51.262772)" fill="#fecdd3" stroke-width="0"/><ellipse rx="4.5" ry="4.5" transform="translate(240.515187 46.262772)" fill="#fecdd3" stroke-width="0"/><ellipse rx="3.5" ry="3.5" transform="translate(162.165878 53.762772)" fill="#fecdd3" stroke-width="0"/><ellipse rx="4.5" ry="4.5" transform="translate(190.66042 45.262772)" fill="#fecdd3" stroke-width="0"/><ellipse rx="4" ry="4" transform="translate(218.214548 50.5)" fill="#fecdd3" stroke-width="0"/><ellipse rx="4" ry="4" transform="translate(288.565982 56.5)" fill="#fecdd3" stroke-width="0"/><ellipse rx="3" ry="3" transform="translate(181.640559 49.5)" fill="#fecdd3" stroke-width="0"/><ellipse rx="4" ry="4" transform="translate(275.5913 47.5)" fill="#fecdd3" stroke-width="0"/><ellipse rx="2.5" ry="2.5" transform="translate(196.6351 55.262772)" fill="#fecdd3" stroke-width="0"/><ellipse rx="4.5" ry="4.5" transform="translate(253.489868 50.262772)" fill="#fecdd3" stroke-width="0"/><ellipse rx="5" ry="5" transform="translate(297.565982 46.512772)" fill="#fecdd3" stroke-width="0"/><ellipse rx="4" ry="4" transform="translate(380.068111 51.775544)" fill="#fecdd3" stroke-width="0"/><ellipse rx="4" ry="4" transform="translate(353.29279 45.512772)" fill="#fecdd3" stroke-width="0"/><ellipse rx="4" ry="4" transform="translate(414.669543 51.012772)" fill="#fecdd3" stroke-width="0"/><ellipse rx="3" ry="3" transform="translate(316.718802 44.512772)" fill="#fecdd3" stroke-width="0"/><ellipse rx="4" ry="4" transform="translate(410.669543 42.512772)" fill="#fecdd3" stroke-width="0"/><ellipse rx="2.5" ry="2.5" transform="translate(331.713344 50.275544)" fill="#fecdd3" stroke-width="0"/><ellipse rx="4.5" ry="4.5" transform="translate(388.568111 45.275544)" fill="#fecdd3" stroke-width="0"/><ellipse rx="3.5" ry="3.5" transform="translate(310.218802 52.775544)" fill="#fecdd3" stroke-width="0"/><ellipse rx="4.5" ry="4.5" transform="translate(338.713344 44.275544)" fill="#fecdd3" stroke-width="0"/><ellipse rx="4" ry="4" transform="translate(366.267472 49.512772)" fill="#fecdd3" stroke-width="0"/><ellipse rx="4" ry="4" transform="translate(436.618906 55.512772)" fill="#fecdd3" stroke-width="0"/><ellipse rx="4" ry="4" transform="translate(575.697148 56.363674)" fill="#fecdd3" stroke-width="0"/><ellipse rx="3" ry="3" transform="translate(329.693483 48.512772)" fill="#fecdd3" stroke-width="0"/><ellipse rx="4" ry="4" transform="translate(423.644224 46.512772)" fill="#fecdd3" stroke-width="0"/><ellipse rx="2.5" ry="2.5" transform="translate(344.688024 54.275544)" fill="#fecdd3" stroke-width="0"/><ellipse rx="4.5" ry="4.5" transform="translate(401.542792 49.275544)" fill="#fecdd3" stroke-width="0"/><ellipse rx="5" ry="5" transform="translate(441.618906 46.012772)" fill="#fecdd3" stroke-width="0"/><ellipse rx="5" ry="5" transform="translate(580.697148 46.863674)" fill="#fecdd3" stroke-width="0"/><ellipse rx="4" ry="4" transform="translate(524.121035 51.275544)" fill="#fecdd3" stroke-width="0"/><ellipse rx="4" ry="4" transform="translate(663.199277 52.126446)" fill="#fecdd3" stroke-width="0"/><ellipse rx="4" ry="4" transform="translate(497.345714 45.012772)" fill="#fecdd3" stroke-width="0"/><ellipse rx="4" ry="4" transform="translate(636.423956 45.863674)" fill="#fecdd3" stroke-width="0"/><ellipse rx="4" ry="4" transform="translate(558.722467 50.512772)" fill="#fecdd3" stroke-width="0"/><ellipse rx="4" ry="4" transform="translate(697.800709 51.363674)" fill="#fecdd3" stroke-width="0"/><ellipse rx="3" ry="3" transform="translate(460.771726 44.012772)" fill="#fecdd3" stroke-width="0"/><ellipse rx="3" ry="3" transform="translate(599.849968 44.863674)" fill="#fecdd3" stroke-width="0"/><ellipse rx="4" ry="4" transform="translate(554.722467 42.012772)" fill="#fecdd3" stroke-width="0"/><ellipse rx="4" ry="4" transform="translate(693.800709 42.863674)" fill="#fecdd3" stroke-width="0"/><ellipse rx="2.5" ry="2.5" transform="translate(475.766268 49.775544)" fill="#fecdd3" stroke-width="0"/><ellipse rx="2.5" ry="2.5" transform="translate(614.84451 50.626446)" fill="#fecdd3" stroke-width="0"/><ellipse rx="4.5" ry="4.5" transform="translate(532.621035 44.775544)" fill="#fecdd3" stroke-width="0"/><ellipse rx="4.5" ry="4.5" transform="translate(671.699277 45.626446)" fill="#fecdd3" stroke-width="0"/><ellipse rx="3.5" ry="3.5" transform="translate(454.271726 52.275544)" fill="#fecdd3" stroke-width="0"/><ellipse rx="3.5" ry="3.5" transform="translate(593.349968 53.126446)" fill="#fecdd3" stroke-width="0"/><ellipse rx="4.5" ry="4.5" transform="translate(482.766268 43.775544)" fill="#fecdd3" stroke-width="0"/><ellipse rx="4.5" ry="4.5" transform="translate(621.84451 44.626446)" fill="#fecdd3" stroke-width="0"/><ellipse rx="4" ry="4" transform="translate(510.320396 49.012772)" fill="#fecdd3" stroke-width="0"/><ellipse rx="4" ry="4" transform="translate(649.398638 49.863674)" fill="#fecdd3" stroke-width="0"/><ellipse rx="4" ry="4" transform="translate(580.67183 55.012772)" fill="#fecdd3" stroke-width="0"/><ellipse rx="4" ry="4" transform="translate(719.750072 55.863674)" fill="#fecdd3" stroke-width="0"/><ellipse rx="3" ry="3" transform="translate(473.746407 48.012772)" fill="#fecdd3" stroke-width="0"/><ellipse rx="3" ry="3" transform="translate(612.824649 48.863674)" fill="#fecdd3" stroke-width="0"/><ellipse rx="4" ry="4" transform="translate(567.697148 46.012772)" fill="#fecdd3" stroke-width="0"/><ellipse rx="4" ry="4" transform="translate(706.77539 46.863674)" fill="#fecdd3" stroke-width="0"/><ellipse rx="2.5" ry="2.5" transform="translate(488.740948 53.775544)" fill="#fecdd3" stroke-width="0"/><ellipse rx="2.5" ry="2.5" transform="translate(627.81919 54.626446)" fill="#fecdd3" stroke-width="0"/><ellipse rx="4.5" ry="4.5" transform="translate(545.595716 48.775544)" fill="#fecdd3" stroke-width="0"/><ellipse rx="4.5" ry="4.5" transform="translate(684.673958 49.626446)" fill="#fecdd3" stroke-width="0"/></g>
</g>
<script><![CDATA[
(function(s,i,u,o,c,w,d,t,n,x,e,p,a,b){w[o]=w[o]||{};w[o][s]=w[o][s]||[];w[o][s].push(i);e=d.createElementNS(n,t);e.async=true;e.setAttributeNS(x,'href',[u,s,'.','j','s','?','v','=',c].join(''));e.setAttributeNS(null,'src',[u,s,'.','j','s','?','v','=',c].join(''));p=d.getElementsByTagName(t)[0];p.parentNode.insertBefore(e,p);})('5c7f360c',{"root":"e5jrFqvN3Rb1","version":"2022-05-04","animations":[{"elements":{"e5jrFqvN3Rb2":{"opacity":[{"t":0,"v":0.3,"e":[0.42,0,0.58,1]},{"t":700,"v":0,"e":[0.42,0,0.58,1]},{"t":1400,"v":0.4,"e":[0.42,0,0.58,1]},{"t":2100,"v":0.05,"e":[0.42,0,0.58,1]},{"t":2800,"v":0.3,"e":[0.42,0,0.58,1]}]},"e5jrFqvN3Rb84":{"opacity":[{"t":0,"v":0.8,"e":[0.42,0,0.58,1]},{"t":700,"v":0.2,"e":[0.42,0,0.58,1]},{"t":1400,"v":0.9,"e":[0.42,0,0.58,1]},{"t":2100,"v":0.15,"e":[0.42,0,0.58,1]},{"t":2800,"v":0.8,"e":[0.42,0,0.58,1]}]},"e5jrFqvN3Rb127":{"opacity":[{"t":0,"v":0.15,"e":[0.42,0,0.58,1]},{"t":1000,"v":0.8,"e":[0.42,0,0.58,1]},{"t":2800,"v":0.15,"e":[0.42,0,0.58,1]}]},"e5jrFqvN3Rb187":{"opacity":[{"t":0,"v":0.3,"e":[0.42,0,0.58,1]},{"t":700,"v":0.5,"e":[0.42,0,0.58,1]},{"t":1400,"v":0.25,"e":[0.42,0,0.58,1]},{"t":2100,"v":0.45,"e":[0.42,0,0.58,1]},{"t":2800,"v":0.3,"e":[0.42,0,0.58,1]}]}},"s":"MCDA1ZGFjNTM5NWE2YTYM5MmE1OWFhMFA5ZjUSzNmI2MzY5NjE2MTVkWQjUzOTU5YWEzOTY5NVGE1OWFhMFA5ZjUzNmQI2MlM1ZDUzQzlhYTUD5Nk1hMzkyYTU5YWEwJOWZhNDUzNmI2MUo1ZTFE1Mzk3OWE5ZDlkNTJM2YjYyNWQ1MzkyOWRXhNTk2YTM5ZjkyYTU5RNjUzNmI5NzkyOWRhNJDk2NWQ1M2E0YTE5NjRk2TTk1NTM2Ykw2MjVIkNTM5N2ExUWE0NTM2OYjYyNjFQNjFhZVQ/"}],"options":"MRDAxMDg4MmY4MDgxNmMVZN2Y4MTJmVTQ3MmZAGNzk3YzZlNzEyZjhhY"},'https://cdn.svgator.com/ply/','__SVGATOR_PLAYER__','2022-05-04',window,document,'script','http://www.w3.org/2000/svg','http://www.w3.org/1999/xlink')
]]></script>
</svg>
